<svg width="20" height="21" viewBox="0 0 20 21" fill="none" xmlns="http://www.w3.org/2000/svg">
<g id="android-globe">
<path id="Shape" fill-rule="evenodd" clip-rule="evenodd" d="M10.0606 0.714844C4.56897 0.714844 0.117188 5.17904 0.117188 10.6859C0.117188 16.1927 4.56897 20.6569 10.0606 20.6569C15.5522 20.6569 20.004 16.1927 20.004 10.6859C20.004 5.17904 15.5522 0.714844 10.0606 0.714844ZM9.03046 19.1719C7.14389 18.9454 5.39834 18.0985 4.03394 16.7304C2.42416 15.1161 1.53767 12.9699 1.53767 10.687C1.53767 8.63191 2.25646 6.68785 3.5742 5.14258C3.60814 5.55086 3.69195 5.98858 3.67048 6.30147C3.59208 7.44215 3.47983 8.15604 4.14566 9.11838C4.40505 9.49321 4.46877 10.0305 4.59503 10.4644C4.71851 10.8888 5.21181 11.1114 5.55203 11.3729C6.23846 11.9007 6.89516 12.5141 7.62303 12.9786C8.10343 13.2851 8.4035 13.4376 8.26281 14.0255C8.14965 14.4982 8.11805 14.7895 7.87415 15.2106C7.79972 15.3392 8.1551 16.1655 8.27337 16.2841C8.63181 16.6434 8.98748 16.9732 9.37819 17.2967C9.98393 17.7986 9.31934 18.4507 9.03046 19.1719ZM16.0875 16.7305C14.8621 17.9593 13.3292 18.7672 11.6629 19.0833C11.899 18.4977 12.3195 17.9774 12.7096 17.6758C13.0488 17.4133 13.4738 16.9084 13.651 16.5084C13.828 16.109 14.0626 15.7627 14.3 15.3954C14.6378 14.873 13.4673 14.085 13.088 13.9199C12.2345 13.5483 11.592 13.0469 10.8335 12.5117C10.2931 12.1304 9.19585 12.7108 8.58572 12.4438C7.75004 12.0779 7.06156 11.4421 6.33516 10.8935C5.58558 10.3274 5.62182 9.66747 5.62182 8.83235C6.20896 8.85406 7.0442 8.66941 7.43401 9.14289C7.55701 9.29231 7.97994 9.95984 8.26304 9.72265C8.49432 9.52883 8.09166 8.75196 8.01388 8.56931C7.77462 8.00772 8.55905 7.7887 8.96056 7.40788C9.4845 6.91105 10.6084 6.13188 10.5196 5.77575C10.4307 5.41962 9.39501 4.41063 8.78669 4.56805C8.69553 4.59164 7.89288 5.43558 7.73781 5.56798C7.74192 5.29253 7.74603 5.01713 7.75023 4.74168C7.75286 4.56776 7.42669 4.38925 7.44185 4.27707C7.48009 3.99357 8.26705 3.47905 8.46281 3.25327C8.32566 3.16731 7.85765 2.76421 7.71601 2.82336C7.37305 2.9667 6.98574 3.06545 6.64279 3.20873C6.64279 3.08946 6.62835 2.97743 6.61114 2.86679C7.29838 2.56167 8.02554 2.3495 8.77718 2.23632L9.45046 2.50764L9.92583 3.07336L10.4002 3.5639L10.815 3.69789L11.4737 3.07494L11.3038 2.63022V2.23047C12.6065 2.42021 13.8367 2.90754 14.9141 3.65901C14.7214 3.67632 14.5096 3.70474 14.2706 3.73523C14.1719 3.67675 14.0452 3.65019 13.9376 3.60949C14.2498 4.28263 14.5755 4.94647 14.9063 5.6107C15.2598 6.32022 16.0438 7.08128 16.1814 7.83026C16.3437 8.71308 16.2311 9.51498 16.3199 10.5536C16.4054 11.5539 17.4444 12.6903 17.4444 12.6903C17.4444 12.6903 17.9243 12.8542 18.3233 12.7971C17.9513 14.2728 17.1887 15.6261 16.0875 16.7305Z" fill="white"/>
</g>
</svg>
