<svg width="276" height="37" viewBox="0 0 276 37" fill="none" xmlns="http://www.w3.org/2000/svg">
<g clip-path="url(#clip0_810_80)">
<path d="M31.0008 25.9047C30.6942 25.4393 32.9498 24.1047 33.5222 23.6913C33.7894 23.4987 33.3295 23.4902 33.3717 22.9601C33.4139 22.4299 34.7498 21.5412 34.9622 21.4343C35.1745 21.3288 34.74 21.2641 34.6978 20.0365C34.6556 18.8074 38.2036 14.0838 38.0981 14.0205C37.9927 13.9572 33.7022 16.203 32.8556 16.2241C32.4422 16.234 32.2059 16.054 32.0428 15.8726C31.8698 15.6827 31.7784 15.4915 31.6491 15.5238C31.3945 15.5871 30.7097 16.4772 29.7112 16.4772C29.108 16.4772 29.3203 15.8205 29.1305 15.926C28.9392 16.0315 26.4277 18.6372 25.072 17.1762C23.7164 15.7151 27.6567 12.5158 27.4022 12.3668C27.1477 12.2191 25.8342 12.3204 25.7077 12.0912C25.5811 11.8619 26.0044 10.3122 25.6655 10.1421C25.5333 10.076 25.2844 10.0915 25.0045 10.1069C24.5658 10.1308 24.0539 10.1562 23.8022 9.86646C23.3789 9.3799 23.8022 7.29303 23.5477 7.00615C23.2931 6.71928 21.645 7.1524 20.6873 6.08506C19.8506 5.15271 19.5117 0.777871 19.0533 0.438965C18.5948 0.777871 18.2559 5.15271 17.4192 6.08506C16.4616 7.1524 14.8134 6.71928 14.5589 7.00615C14.3044 7.29303 14.7291 9.3785 14.3044 9.86646C14.0527 10.1562 13.5394 10.1322 13.1006 10.1069C12.8208 10.0915 12.5719 10.076 12.4397 10.1421C12.1008 10.3108 12.5241 11.8619 12.3975 12.0912C12.2709 12.319 10.9575 12.2177 10.703 12.3668C10.4484 12.5144 14.3887 15.7137 13.0331 17.1762C11.6775 18.6387 9.16593 16.0329 8.97468 15.926C8.78343 15.8205 8.99718 16.4772 8.3939 16.4772C7.39547 16.4772 6.70922 15.5871 6.45609 15.5238C6.32531 15.4915 6.2339 15.6813 6.06234 15.8726C5.89922 16.0526 5.66156 16.234 5.24953 16.2241C4.39734 16.2016 0.108278 13.9558 0.00280934 14.0191C-0.102659 14.0824 3.44531 18.8074 3.40312 20.0351C3.36093 21.2641 2.9264 21.3274 3.13875 21.4329C3.35109 21.5383 4.68703 22.4285 4.72922 22.9587C4.7714 23.4888 4.31297 23.4972 4.57875 23.6899C5.15109 24.1033 7.40672 25.4379 7.10015 25.9033C6.69234 26.5207 2.62968 31.5593 1.99406 32.7462C1.35843 33.933 4.33968 33.1258 5.97656 33.0963C7.84687 33.0612 10.6369 33.4676 11.167 33.6574C11.6972 33.8487 11.167 36.3265 11.6747 36.5388C12.1837 36.7512 13.3144 35.1129 14.6194 34.2508C15.878 33.4197 17.0198 32.9852 19.1405 32.9922C21.1823 32.9993 22.3678 33.3888 23.4802 34.2508C24.788 35.2633 25.9158 36.7512 26.4248 36.5388C26.9339 36.3265 26.4037 33.8487 26.9339 33.6574C27.4641 33.4662 30.2541 33.0612 32.1244 33.0963C33.7612 33.1272 36.7425 33.933 36.1069 32.7462C35.4712 31.5593 31.4086 26.5221 31.0022 25.9033L31.0008 25.9047Z" fill="black"/>
<path d="M56.7886 17.0649V17.4728L56.8308 17.5051C57.1753 17.7638 57.3975 18.0465 57.4903 18.3474C57.6267 18.7749 57.6971 19.2826 57.6971 19.8578C57.6971 21.1037 57.3413 22.4649 56.6381 23.9021L56.1263 24.9484L53.9691 20.409C53.5388 19.4992 53.3208 18.8537 53.3208 18.4895C53.3208 17.979 53.6625 17.6626 54.367 17.5234L54.4528 17.5065V17.0649H45.9211V17.4995L45.9985 17.522C46.6172 17.6992 47.0742 17.9284 47.3583 18.2054C47.7127 18.5513 48.1191 19.194 48.5691 20.1165L53.8636 30.8321L57.9628 22.3665C58.9472 20.3401 59.8725 18.924 60.7121 18.1576C60.975 17.9185 61.3406 17.7034 61.7991 17.5178L61.8652 17.491V17.0649H56.79H56.7886Z" fill="black"/>
<path d="M65.5285 16.1339C66.3005 16.1339 66.9657 15.8555 67.5057 15.307C68.0555 14.767 68.3339 14.1089 68.3339 13.3537C68.3339 12.5578 68.0555 11.8786 67.5071 11.3386C66.9671 10.7902 66.2963 10.5117 65.5172 10.5117C64.7381 10.5117 64.0969 10.7902 63.54 11.3372C62.9902 11.8702 62.7117 12.5353 62.7117 13.3158C62.7117 14.0962 62.9902 14.7572 63.5386 15.3056C64.0786 15.8541 64.7494 16.1325 65.5299 16.1325L65.5285 16.1339Z" fill="black"/>
<path d="M69.9497 29.5512C69.4842 29.5273 69.1355 29.4668 68.9175 29.374C68.5603 29.2137 68.3522 28.9198 68.2819 28.4698C68.2172 28.0957 68.1835 27.4826 68.1835 26.6473V16.6826L68.04 16.7361C66.1219 17.4518 63.8705 18.1128 61.3505 18.6964L61.2605 18.7175L61.3027 19.1632L61.3941 19.1675C61.9032 19.1914 62.2955 19.2898 62.5599 19.4614C62.9255 19.7032 63.1786 20.0632 63.3122 20.5315C63.4177 20.9351 63.4711 21.5876 63.4711 22.4693V26.6473C63.4711 27.214 63.4627 27.6429 63.4472 27.92C63.4078 28.4375 63.3094 28.8129 63.1561 29.0351C62.9367 29.3375 62.4488 29.5118 61.7063 29.5512L61.6064 29.5568V30.0125H70.051V29.5568L69.9497 29.5512Z" fill="black"/>
<path d="M78.8189 29.5508C78.3535 29.5269 78.0047 29.4665 77.7853 29.3722C77.4282 29.2204 77.2214 28.9265 77.1525 28.4694C77.0878 28.0954 77.0541 27.4822 77.0541 26.6469V10.5679L76.9135 10.6157C74.9953 11.2738 72.7439 11.8799 70.2225 12.4157L70.1297 12.4354L70.1719 12.8826L70.2633 12.8868C70.7724 12.9107 71.1647 13.0091 71.4291 13.1807C71.7947 13.4226 72.0478 13.7826 72.1814 14.2508C72.2869 14.6544 72.3403 15.3069 72.3403 16.1887V26.6469C72.3403 27.2305 72.3319 27.6594 72.3164 27.9196C72.2771 28.4371 72.1786 28.8126 72.0239 29.0362C71.813 29.3385 71.325 29.5115 70.5755 29.5508L70.4757 29.5565V30.0121H78.9202V29.5565L78.8189 29.5508Z" fill="black"/>
<path d="M87.6893 29.551C87.2239 29.5271 86.8751 29.4666 86.6557 29.3724C86.2986 29.2205 86.0918 28.9266 86.0229 28.4696C85.9582 28.0955 85.9245 27.4824 85.9245 26.6471V9.18848C85.9245 9.18848 85.9526 9.23488 85.5603 9.43879C83.5704 10.471 81.4821 11.1052 79.0929 11.4694L79.0001 11.4891L79.0423 11.9363L79.1337 11.9405C79.6428 11.9644 80.0351 12.0629 80.2995 12.2344C80.6651 12.4763 80.9182 12.8363 81.0518 13.3046C81.1573 13.7082 81.2107 14.3607 81.2107 15.2424V26.6485C81.2107 27.2321 81.2023 27.661 81.1868 27.9211C81.1475 28.4386 81.049 28.8141 80.8943 29.0377C80.6834 29.34 80.1954 29.513 79.4459 29.5524L79.3461 29.558V30.0136H87.7906V29.558L87.6893 29.5524V29.551Z" fill="black"/>
<path d="M103.748 27.9237C103.359 28.1459 103.035 28.2584 102.78 28.2584C102.35 28.2584 102.073 28.1038 101.932 27.7859C101.822 27.5441 101.768 27.0153 101.768 26.2123V20.3553C101.768 19.6592 101.694 19.0756 101.551 18.6214C101.422 18.1883 101.15 17.7959 100.745 17.4514C100.156 16.9648 99.3558 16.7188 98.3644 16.7188C97.1157 16.7188 95.7333 16.9466 94.2553 17.3952C93.0178 17.7608 91.9632 18.1953 91.1236 18.6861C89.6442 19.5397 88.8947 20.5128 88.8947 21.5759C88.8947 22.1244 89.0677 22.58 89.4094 22.9316C89.7596 23.2916 90.225 23.473 90.7917 23.473C91.5821 23.473 92.2613 23.1636 92.8097 22.5561C93.2133 22.1188 93.4692 21.5098 93.5705 20.7434C93.6689 19.9461 93.7477 19.4145 93.8053 19.1628C93.9164 18.6819 94.1217 18.3078 94.4185 18.0491C94.7532 17.7537 95.1694 17.6033 95.6546 17.6033C96.1397 17.6033 96.4857 17.7987 96.7332 18.1995C96.9455 18.5455 97.0538 19.4933 97.0538 21.0163V22.2678C93.51 23.3028 91.1503 24.2816 90.0422 25.1745C89.2561 25.8059 88.8582 26.5752 88.8582 27.4583C88.8582 28.1895 89.1282 28.8181 89.6611 29.3258C90.3671 30.005 91.3542 30.3509 92.5946 30.3509C93.8349 30.3509 94.8277 30.057 95.7136 29.4748C96.1805 29.1613 96.6516 28.693 97.1185 28.0827C97.2492 28.6381 97.4264 29.0727 97.6458 29.375C98.1296 30.0303 98.8313 30.3636 99.7341 30.3636C100.637 30.3636 101.557 30.0486 102.514 29.427C102.947 29.1528 103.456 28.7731 104.03 28.3006L104.112 28.2331L103.826 27.883L103.748 27.928V27.9237ZM95.3916 23.5503C95.7558 23.2916 96.3141 23.0356 97.0524 22.7895V26.585C97.0524 27.177 96.9146 27.6298 96.6446 27.9322C96.3647 28.243 96.0328 28.3948 95.6293 28.3948C94.7053 28.3948 94.2553 27.6566 94.2553 26.1378C94.2553 24.9523 94.6378 24.0833 95.3916 23.5503Z" fill="black"/>
<path d="M116.895 26.6261C116.051 25.9849 114.933 25.66 113.572 25.66C113.131 25.66 112.56 25.6811 111.874 25.7219C111.133 25.7627 110.558 25.7838 110.164 25.7838C108.986 25.7838 108.204 25.6797 107.841 25.4744C107.459 25.2607 107.273 24.9485 107.273 24.5224C107.273 24.2102 107.429 23.9275 107.75 23.6589C109.773 24.2847 111.8 24.2777 113.543 23.6913C114.645 23.3214 115.469 22.7997 115.993 22.1402C116.471 21.5439 116.713 20.9182 116.713 20.2825C116.713 19.1238 115.952 18.1718 114.452 17.4504C113.48 16.9807 112.423 16.7388 111.309 16.7304H111.178V16.5996C111.178 15.5885 111.412 14.7447 111.911 14.7447C112.049 14.7447 112.438 14.8361 112.854 15.438C113.278 16.0497 113.888 16.518 114.429 16.518C114.971 16.518 115.46 16.3 115.829 15.8725C116.159 15.49 116.326 15.0063 116.326 14.4354C116.326 13.8096 116.089 13.2766 115.62 12.8519C115.163 12.4371 114.595 12.2275 113.933 12.2275C112.788 12.2275 111.9 12.7296 111.293 13.721C110.887 14.3904 110.682 15.2791 110.682 16.3633C110.682 16.4463 110.685 16.5714 110.69 16.736C108.636 16.8654 107.051 17.4293 105.978 18.4122C105.262 19.0689 104.899 19.7932 104.899 20.568C104.899 21.416 105.242 22.15 105.917 22.7491C106.217 23.0191 106.643 23.2554 107.183 23.4522C105.33 24.5013 104.39 25.698 104.39 27.0114C104.39 27.7807 104.747 28.4374 105.452 28.9605C105.819 29.2404 106.307 29.4654 106.909 29.6299C105.328 30.2416 104.528 31.0333 104.528 31.9854C104.528 32.4508 104.688 32.8558 105.005 33.1905C105.38 33.5829 105.864 33.8768 106.442 34.0638C107.567 34.4224 108.858 34.6038 110.28 34.6038C111.869 34.6038 113.351 34.3422 114.684 33.8247C115.948 33.3227 116.906 32.6449 117.529 31.811C118.095 31.0418 118.382 30.25 118.382 29.4597C118.382 28.9225 118.245 28.391 117.973 27.8819C117.719 27.3883 117.356 26.9664 116.899 26.6275L116.895 26.6261ZM112.044 22.863C111.838 23.3468 111.458 23.5816 110.886 23.5816C110.313 23.5816 109.921 23.3369 109.689 22.8335C109.415 22.2541 109.277 21.3611 109.277 20.1799C109.277 19.2616 109.378 18.5472 109.579 18.0564C109.803 17.5305 110.183 17.276 110.738 17.276C111.807 17.276 112.348 18.4122 112.348 20.6524C112.348 21.6452 112.247 22.3877 112.046 22.8616L112.044 22.863ZM111.669 33.9288C110.555 33.9288 109.562 33.715 108.719 33.2932C107.703 32.7855 107.21 32.081 107.21 31.1374C107.21 30.5622 107.432 30.1263 107.888 29.8057C108.636 29.9182 109.304 29.9744 109.876 29.9744C110.208 29.9744 110.675 29.9575 111.264 29.9238C111.897 29.883 112.359 29.8619 112.638 29.8619C113.51 29.8619 114.197 30.011 114.683 30.3063C115.168 30.6114 115.404 31.0375 115.404 31.6099C115.404 32.2736 115.09 32.8024 114.443 33.2257C113.752 33.6925 112.818 33.9288 111.668 33.9288H111.669Z" fill="black"/>
<path d="M161.97 26.6261C161.127 25.9849 160.009 25.66 158.648 25.66C158.207 25.66 157.636 25.6811 156.95 25.7219C156.209 25.7627 155.634 25.7838 155.24 25.7838C154.062 25.7838 153.28 25.6797 152.917 25.4744C152.535 25.2607 152.349 24.9485 152.349 24.5224C152.349 24.2102 152.505 23.9275 152.826 23.6589C154.849 24.2847 156.876 24.2777 158.619 23.6913C159.72 23.3214 160.545 22.7997 161.069 22.1402C161.547 21.5439 161.789 20.9182 161.789 20.2825C161.789 19.1238 161.028 18.1718 159.528 17.4504C158.556 16.9807 157.499 16.7388 156.385 16.7304H156.254V16.5996C156.254 15.5885 156.488 14.7447 156.987 14.7447C157.125 14.7447 157.514 14.8361 157.93 15.438C158.347 16.0399 158.964 16.518 159.505 16.518C160.047 16.518 160.536 16.3 160.905 15.8725C161.235 15.49 161.402 15.0063 161.402 14.4354C161.402 13.8096 161.165 13.2766 160.696 12.8519C160.239 12.4371 159.671 12.2275 159.009 12.2275C157.864 12.2275 156.975 12.7296 156.369 13.721C155.963 14.3904 155.758 15.2791 155.758 16.3633C155.758 16.4463 155.76 16.5714 155.766 16.736C153.712 16.8654 152.127 17.4293 151.054 18.4122C150.338 19.0689 149.975 19.7932 149.975 20.568C149.975 21.416 150.318 22.15 150.993 22.7491C151.293 23.0191 151.719 23.2554 152.259 23.4522C150.405 24.5013 149.466 25.698 149.466 27.0114C149.466 27.7807 149.823 28.4374 150.528 28.9605C150.895 29.2404 151.383 29.4654 151.985 29.6299C150.404 30.2416 149.604 31.0333 149.604 31.9854C149.604 32.4508 149.764 32.8558 150.081 33.1905C150.456 33.5829 150.94 33.8768 151.518 34.0638C152.643 34.4224 153.934 34.6038 155.355 34.6038C156.945 34.6038 158.427 34.3422 159.76 33.8247C161.024 33.3227 161.982 32.6449 162.605 31.811C163.171 31.0418 163.458 30.25 163.458 29.4597C163.458 28.9225 163.32 28.391 163.049 27.8819C162.795 27.3883 162.432 26.9664 161.975 26.6275L161.97 26.6261ZM157.12 22.863C156.914 23.3468 156.534 23.5816 155.962 23.5816C155.389 23.5816 154.997 23.3369 154.765 22.8335C154.491 22.2541 154.353 21.3611 154.353 20.1799C154.353 19.2616 154.454 18.5472 154.655 18.0564C154.879 17.5305 155.258 17.276 155.814 17.276C156.883 17.276 157.424 18.4122 157.424 20.6524C157.424 21.6452 157.323 22.3877 157.122 22.8616L157.12 22.863ZM156.745 33.9288C155.631 33.9288 154.638 33.715 153.795 33.2932C152.779 32.7855 152.286 32.081 152.286 31.1374C152.286 30.5622 152.508 30.1263 152.963 29.8057C153.712 29.9182 154.38 29.9744 154.952 29.9744C155.284 29.9744 155.751 29.9575 156.34 29.9238C156.973 29.883 157.435 29.8619 157.714 29.8619C158.586 29.8619 159.273 30.011 159.758 30.3063C160.244 30.6114 160.48 31.0375 160.48 31.6099C160.48 32.2736 160.166 32.8024 159.519 33.2257C158.828 33.6925 157.894 33.9288 156.743 33.9288H156.745Z" fill="black"/>
<path d="M131.534 24.1131C131.181 24.7867 130.794 25.3098 130.388 25.6684C129.711 26.2492 128.848 26.5993 127.818 26.7076C125.099 26.9931 123.594 25.6543 123.22 22.6154L131.631 21.7309L131.603 21.6142C131.437 20.9082 131.234 20.3317 131.002 19.9C130.413 18.796 129.531 17.9467 128.381 17.3743C127.26 16.8259 126.025 16.6178 124.708 16.7556C122.958 16.9398 121.468 17.6725 120.278 18.9353C118.837 20.4526 118.218 22.2948 118.44 24.4112C118.63 26.2126 119.405 27.692 120.746 28.8071C122.196 30.0123 123.937 30.5171 125.92 30.309C127.972 30.0939 129.551 29.1615 130.613 27.5387C131.155 26.7175 131.614 25.6206 131.975 24.2776L132 24.182L131.574 24.0329L131.532 24.1145L131.534 24.1131ZM123.165 22.1064C123.078 21.2289 123.069 20.4357 123.14 19.7495C123.292 18.2293 123.823 17.4123 124.718 17.3181C125.491 17.2365 126.032 17.7245 126.37 18.8087C126.54 19.367 126.702 20.3457 126.849 21.7196L123.165 22.1064Z" fill="black"/>
<path d="M148.629 27.8787L148.551 27.9237C148.163 28.1459 147.838 28.2584 147.583 28.2584C147.153 28.2584 146.876 28.1038 146.735 27.7859C146.625 27.5441 146.571 27.0153 146.571 26.2123V20.3553C146.571 19.6592 146.498 19.0756 146.354 18.6214C146.225 18.1883 145.953 17.7959 145.548 17.4514C144.959 16.9648 144.159 16.7188 143.168 16.7188C141.919 16.7188 140.536 16.9466 139.058 17.3952C137.821 17.7608 136.766 18.1953 135.927 18.6861C134.447 19.5397 133.698 20.5128 133.698 21.5759C133.698 22.1244 133.871 22.58 134.213 22.9316C134.563 23.2916 135.028 23.473 135.595 23.473C136.385 23.473 137.064 23.1636 137.613 22.5561C138.016 22.1188 138.272 21.5098 138.374 20.7434C138.472 19.9461 138.551 19.4145 138.608 19.1628C138.72 18.6819 138.925 18.3078 139.222 18.0491C139.556 17.7537 139.973 17.6033 140.458 17.6033C140.943 17.6033 141.289 17.7987 141.536 18.1995C141.749 18.5455 141.857 19.4933 141.857 21.0163V22.2678C138.313 23.3028 135.953 24.2816 134.845 25.1745C134.059 25.8059 133.661 26.5752 133.661 27.4583C133.661 28.1895 133.931 28.8181 134.464 29.3258C135.17 30.005 136.157 30.3509 137.398 30.3509C138.638 30.3509 139.631 30.057 140.517 29.4748C140.984 29.1613 141.455 28.693 141.922 28.0827C142.052 28.6381 142.23 29.0727 142.449 29.375C142.933 30.0303 143.634 30.3636 144.537 30.3636C145.44 30.3636 146.36 30.0486 147.317 29.427C147.75 29.1528 148.26 28.7731 148.833 28.3006L148.915 28.2331L148.629 27.883V27.8787ZM140.196 23.5503C140.56 23.2916 141.119 23.0356 141.857 22.7895V26.585C141.857 27.177 141.719 27.6298 141.449 27.9322C141.169 28.243 140.837 28.3948 140.434 28.3948C139.51 28.3948 139.06 27.6566 139.06 26.1378C139.06 24.9523 139.442 24.0833 140.196 23.5503Z" fill="black"/>
<path d="M176.058 15.4547C175.584 15.0061 175.004 14.7783 174.331 14.7783C173.306 14.7783 172.399 15.2902 171.636 16.2999C171.255 16.8019 170.918 17.4319 170.633 18.1786V15.8344L170.491 15.885C169.024 16.4124 168.311 16.7766 167.702 16.965C166.897 17.2125 165.756 17.5079 164.315 17.8468L164.225 17.8679L164.267 18.3122L164.358 18.3164C164.867 18.3404 165.26 18.4388 165.524 18.6104C165.89 18.8522 166.143 19.2122 166.276 19.6805C166.382 20.0841 166.435 20.7366 166.435 21.6183V26.6457C166.435 27.2194 166.423 27.6483 166.399 27.9183C166.359 28.4344 166.254 28.8085 166.084 29.0321C165.856 29.3358 165.322 29.5102 164.498 29.5496L164.396 29.5538V30.0094H172.848V29.5538L172.747 29.5496C172.238 29.5257 171.856 29.4652 171.612 29.3696C171.222 29.2163 170.992 28.921 170.906 28.4668C170.841 28.1011 170.807 27.488 170.807 26.6443V23.4605C170.807 22.441 170.837 20.461 170.895 19.9027C170.934 19.5132 171.059 18.3643 171.266 18.0057C171.454 17.6808 171.681 17.5233 171.958 17.5233C172.187 17.5233 172.422 17.6808 172.657 17.9916C173.021 18.4739 173.265 18.7693 173.409 18.893C173.775 19.1897 174.203 19.3388 174.682 19.3388C175.317 19.3388 175.843 19.0913 176.244 18.6033C176.581 18.1885 176.753 17.6836 176.753 17.1057C176.753 16.4574 176.521 15.9005 176.061 15.4491L176.058 15.4547Z" fill="black"/>
<path d="M262.167 15.4547C261.693 15.0061 261.112 14.7783 260.44 14.7783C259.415 14.7783 258.508 15.2902 257.744 16.2999C257.363 16.8019 257.027 17.4319 256.742 18.1786V15.8344L256.6 15.885C255.133 16.4124 254.42 16.7766 253.811 16.965C253.005 17.2125 251.865 17.5079 250.423 17.8468L250.333 17.8679L250.376 18.3122L250.467 18.3164C250.976 18.3404 251.368 18.4388 251.633 18.6104C251.998 18.8522 252.251 19.2122 252.385 19.6805C252.491 20.0841 252.544 20.7366 252.544 21.6183V26.6457C252.544 27.2194 252.531 27.6483 252.507 27.9183C252.468 28.4344 252.363 28.8085 252.192 29.0321C251.965 29.3358 251.43 29.5102 250.606 29.5496L250.505 29.5538V30.0094H258.956V29.5538L258.855 29.5496C258.346 29.5257 257.965 29.4652 257.72 29.3696C257.331 29.2163 257.1 28.921 257.014 28.4668C256.95 28.1011 256.916 27.488 256.916 26.6443V23.4605C256.916 22.441 256.946 20.461 257.003 19.9027C257.043 19.5132 257.168 18.3643 257.374 18.0057C257.563 17.6808 257.789 17.5233 258.066 17.5233C258.296 17.5233 258.53 17.6808 258.765 17.9916C259.129 18.4739 259.374 18.7693 259.518 18.893C259.883 19.1897 260.312 19.3388 260.79 19.3388C261.426 19.3388 261.952 19.0913 262.353 18.6033C262.69 18.1885 262.862 17.6836 262.862 17.1057C262.862 16.4574 262.63 15.9005 262.17 15.4491L262.167 15.4547Z" fill="black"/>
<path d="M180.236 17.0436C181.008 17.0436 181.673 16.7651 182.213 16.2167C182.763 15.6767 183.042 15.0186 183.042 14.2634C183.042 13.4675 182.763 12.7883 182.215 12.2483C181.675 11.6998 181.004 11.4214 180.225 11.4214C179.446 11.4214 178.805 11.6998 178.248 12.2469C177.698 12.7798 177.42 13.445 177.42 14.2254C177.42 15.0059 177.698 15.6669 178.246 16.2153C178.786 16.7637 179.457 17.0422 180.238 17.0422L180.236 17.0436Z" fill="black"/>
<path d="M184.656 29.5506C184.191 29.5267 183.842 29.4662 183.624 29.3734C183.267 29.2131 183.059 28.9192 182.988 28.4692C182.924 28.0952 182.89 28.7336 182.89 27.8983V17.9336L182.746 17.987C180.828 18.7028 178.577 19.3637 176.057 19.9473L175.967 19.9684L176.009 20.4142L176.1 20.4184C176.61 20.4423 177.002 20.5408 177.266 20.7123C177.632 20.9542 177.885 21.3142 178.019 21.7825C178.124 22.1861 178.178 22.8386 178.178 23.7203V27.8983C178.178 28.465 178.169 27.6437 178.154 27.9208C178.114 28.4383 178.016 28.8138 177.863 29.0359C177.643 29.3383 177.155 29.5127 176.413 29.552L176.313 29.5577V30.0133H184.757V29.5577L184.656 29.552V29.5506Z" fill="black"/>
<path d="M198.045 25.1693C196.959 26.2943 195.701 26.8653 194.303 26.8653C192.983 26.8653 191.922 26.3928 191.152 25.4618C190.433 24.5815 190.069 23.3946 190.069 21.9349C190.069 20.6665 190.34 19.5331 190.876 18.567C191.358 17.6993 191.957 17.2788 192.711 17.2788C193.141 17.2788 193.492 17.4195 193.778 17.7063C194.034 17.9707 194.16 18.2913 194.16 18.6893C194.16 18.9509 194.091 19.3137 193.953 19.7651C193.784 20.3192 193.7 20.7607 193.7 21.0771C193.7 21.6888 193.88 22.2134 194.234 22.6367C194.66 23.1485 195.235 23.4087 195.946 23.4087C196.656 23.4087 197.186 23.1485 197.595 22.6353C197.958 22.1867 198.141 21.6495 198.141 21.0392C198.141 19.9423 197.651 18.9537 196.687 18.0987C195.652 17.1903 194.306 16.729 192.687 16.729C191.558 16.729 190.488 16.9582 189.509 17.4096C188.311 17.9538 187.338 18.7835 186.616 19.872C185.837 21.0448 185.442 22.3498 185.442 23.749C185.442 24.6209 185.612 25.4956 185.947 26.3492C186.299 27.2463 186.789 28.0043 187.403 28.6006C188.603 29.7593 190.155 30.3471 192.015 30.3471C194.891 30.3471 197.079 28.6976 198.516 25.4463L198.555 25.3563L198.1 25.1103L198.044 25.1679L198.045 25.1693Z" fill="black"/>
<path d="M214.66 28.0589C213.833 27.9633 213.321 27.6201 213.092 27.0056C212.974 26.7131 212.913 26.1281 212.913 25.2675V16.7104L212.79 16.7315C210.426 17.1267 208.408 17.3644 206.522 17.4389L206.419 17.4431V17.8931L206.518 17.9001C206.989 17.9325 207.339 18.007 207.558 18.1251C207.907 18.3079 208.145 18.7129 208.261 19.3317C208.309 19.589 208.335 20.0854 208.335 20.804V27.4008C207.738 27.9872 207.16 28.2839 206.612 28.2839C206.063 28.2839 205.685 28.0898 205.446 27.6876C205.275 27.4078 205.189 26.8565 205.189 26.0522V16.7119L205.065 16.7329C202.701 17.1281 200.679 17.3658 198.785 17.4403L198.682 17.4445V17.8945L198.781 17.9015C199.56 17.9564 200.062 18.1814 200.275 18.5681C200.506 18.9815 200.623 19.7339 200.623 20.804V26.4994C200.623 27.2489 200.665 27.8297 200.749 28.2276C200.904 28.89 201.254 29.4061 201.788 29.759C202.376 30.15 203.036 30.3483 203.75 30.3483C204.844 30.3483 205.789 30.0037 206.831 29.3231C207.183 29.0854 207.688 28.672 208.332 28.094V30.3862L209.242 30.1078C211.163 29.4806 212.154 29.122 212.459 29.039C213.1 28.8576 213.843 28.6833 214.664 28.5187L214.75 28.5019V28.0715L214.656 28.0603L214.66 28.0589Z" fill="black"/>
<path d="M250 28.0589C249.173 27.9633 248.661 27.6201 248.432 27.0056C248.314 26.7131 248.254 26.1281 248.254 25.2675V16.7104L248.13 16.7315C245.766 17.1267 243.748 17.3644 241.862 17.4389L241.76 17.4431V17.8931L241.858 17.9001C242.329 17.9325 242.679 18.007 242.899 18.1251C243.247 18.3079 243.485 18.7129 243.602 19.3317C243.65 19.589 243.675 20.0854 243.675 20.804V27.4008C243.079 27.9872 242.501 28.2839 241.952 28.2839C241.404 28.2839 241.025 28.0898 240.786 27.6876C240.615 27.4078 240.529 26.8565 240.529 26.0522V16.7119L240.405 16.7329C238.041 17.1281 236.019 17.3658 234.125 17.4403L234.022 17.4445V17.8945L234.121 17.9015C234.9 17.9564 235.402 18.1814 235.616 18.5681C235.846 18.9815 235.963 19.7339 235.963 20.804V26.4994C235.963 27.2489 236.005 27.8297 236.09 28.2276C236.244 28.89 236.594 29.4061 237.129 29.759C237.717 30.15 238.376 30.3483 239.09 30.3483C240.185 30.3483 241.13 30.0037 242.172 29.3231C242.523 29.0854 243.028 28.672 243.672 28.094V30.3862L244.582 30.1078C246.503 29.4806 247.494 29.122 247.799 29.039C248.441 28.8576 249.183 28.6833 250.004 28.5187L250.09 28.5019V28.0715L249.996 28.0603L250 28.0589Z" fill="black"/>
<path d="M222.335 29.3737C221.978 29.2218 221.771 28.9279 221.702 28.4709C221.638 28.0968 221.604 27.4837 221.604 26.6484V10.5693L221.463 10.6171C219.545 11.2753 217.294 11.8814 214.772 12.4171L214.68 12.4368L214.722 12.884L214.813 12.8882C215.322 12.9121 215.715 13.0106 215.979 13.1821C216.345 13.424 216.598 13.784 216.731 14.2523C216.837 14.6559 216.89 15.3084 216.89 16.1901V26.6484C216.89 27.232 216.882 27.6609 216.866 27.9211C216.827 28.4386 216.728 28.814 216.574 29.0376C216.363 29.34 215.875 29.5129 215.125 29.5523L215.024 29.5579V30.0136H223.469V29.5579L223.367 29.5523C222.902 29.5284 222.553 29.4679 222.334 29.3737H222.335Z" fill="black"/>
<path d="M233.754 28.0266C233.204 28.2122 232.726 28.3065 232.332 28.3065C231.593 28.3065 231.051 28.0829 230.725 27.6399C230.451 27.2785 230.311 26.6316 230.311 25.7147V18.4838H232.844L233.591 17.0776H230.311V11.6733L230.119 11.949C228.165 14.739 225.612 16.8694 222.526 18.2813L222.083 18.4838H225.598V25.989C225.598 26.8412 225.679 27.5569 225.838 28.1208C225.993 28.644 226.305 29.1094 226.768 29.5032C227.447 30.0643 228.32 30.3483 229.359 30.3483C230.318 30.3483 231.339 30.0516 232.397 29.4638C232.862 29.198 233.393 28.8479 233.973 28.4246L234.051 28.3683L233.834 27.9999L233.753 28.028L233.754 28.0266Z" fill="black"/>
<path d="M274.757 24.0271L274.715 24.1087C274.362 24.7823 273.975 25.3054 273.569 25.664C272.893 26.2448 272.029 26.5949 271 26.7032C268.28 26.9887 266.775 25.6499 266.401 22.611L274.812 21.7265L274.784 21.6098C274.618 20.9038 274.416 20.3273 274.184 19.8956C273.594 18.7917 272.713 17.9423 271.562 17.3699C270.442 16.8215 269.205 16.6134 267.889 16.7512C266.14 16.9354 264.649 17.6681 263.46 18.9309C262.018 20.4482 261.399 22.2904 261.622 24.4068C261.811 26.2082 262.586 27.6876 263.928 28.8027C265.378 30.0079 267.119 30.5127 269.101 30.3046C271.153 30.0895 272.732 29.1571 273.794 27.5343C274.337 26.7131 274.795 25.6162 275.157 24.2732L275.182 24.1776L274.756 24.0285L274.757 24.0271ZM266.347 22.102C266.259 21.2245 266.251 20.4313 266.321 19.7451C266.473 18.2249 267.005 17.4079 267.899 17.3137C268.673 17.2321 269.214 17.7201 269.551 18.8043C269.722 19.3626 269.883 20.3413 270.031 21.7152L266.347 22.102Z" fill="black"/>
<path d="M70.526 29.5552H70.0338V30.0122H70.526V29.5552Z" fill="black"/>
<path d="M79.3617 29.5552H78.8695V30.0122H79.3617V29.5552Z" fill="black"/>
<path d="M176.891 29.5552H175.447V30.0122H176.891V29.5552Z" fill="black"/>
</g>
<defs>
<clipPath id="clip0_810_80">
<rect width="275.183" height="36.1195" fill="white" transform="translate(0 0.44043)"/>
</clipPath>
</defs>
</svg>
