<svg width="183" height="24" viewBox="0 0 183 24" fill="none" xmlns="http://www.w3.org/2000/svg">
<g clip-path="url(#clip0_1309_15739)">
<path d="M20.6158 16.9181C20.4119 16.6088 21.9119 15.722 22.2925 15.4473C22.4702 15.3193 22.1644 15.3137 22.1925 14.9614C22.2205 14.6092 23.1089 14.0186 23.2501 13.9476C23.3914 13.8775 23.1024 13.8346 23.0743 13.0188C23.0463 12.2022 25.4057 9.06353 25.3356 9.02148C25.2654 8.97943 22.4122 10.4717 21.8493 10.4857C21.5743 10.4922 21.4172 10.3726 21.3087 10.2521C21.1937 10.1259 21.1329 9.99886 21.0469 10.0204C20.8776 10.0624 20.4222 10.6539 19.7582 10.6539C19.357 10.6539 19.4982 10.2175 19.372 10.2876C19.2448 10.3577 17.5746 12.0891 16.6731 11.1183C15.7716 10.1474 18.3919 8.02168 18.2227 7.92263C18.0534 7.82452 17.1799 7.89179 17.0958 7.73949C17.0116 7.58718 17.2931 6.55747 17.0677 6.44441C16.9798 6.4005 16.8143 6.41077 16.6282 6.42105C16.3364 6.43694 15.996 6.45376 15.8286 6.26127C15.5471 5.93797 15.8286 4.55132 15.6594 4.36071C15.4901 4.17009 14.3941 4.45788 13.7572 3.74868C13.2008 3.12917 12.9754 0.22226 12.6706 -0.00292969C12.3657 0.22226 12.1403 3.12917 11.5839 3.74868C10.947 4.45788 9.85101 4.17009 9.68174 4.36071C9.51247 4.55132 9.7949 5.93704 9.51248 6.26127C9.34508 6.45376 9.00374 6.43787 8.71197 6.42105C8.52587 6.41077 8.36034 6.4005 8.27244 6.44441C8.04706 6.55654 8.32855 7.58718 8.24438 7.73949C8.16022 7.89086 7.28677 7.82358 7.1175 7.92263C6.94823 8.02074 9.56859 10.1465 8.66708 11.1183C7.76557 12.09 6.09536 10.3586 5.96817 10.2876C5.84099 10.2175 5.98314 10.6539 5.58195 10.6539C4.91798 10.6539 4.46161 10.0624 4.29328 10.0204C4.20631 9.99886 4.14552 10.125 4.03143 10.2521C3.92295 10.3717 3.76491 10.4922 3.4909 10.4857C2.92419 10.4707 0.0719154 8.9785 0.00177752 9.02055C-0.0683604 9.06259 2.29108 12.2022 2.26302 13.0179C2.23497 13.8346 1.946 13.8766 2.08721 13.9467C2.22842 14.0168 3.11683 14.6082 3.14489 14.9605C3.17295 15.3128 2.86808 15.3184 3.04483 15.4464C3.42544 15.7211 4.92546 16.6079 4.72159 16.9171C4.45039 17.3273 1.74868 20.6753 1.32598 21.4639C0.903283 22.2525 2.88585 21.7162 3.97439 21.6966C5.21817 21.6732 7.07355 21.9433 7.42611 22.0694C7.77867 22.1965 7.42611 23.8429 7.7637 23.984C8.10223 24.1251 8.85411 23.0365 9.72195 22.4637C10.5589 21.9115 11.3183 21.6228 12.7285 21.6274C14.0864 21.6321 14.8747 21.8909 15.6145 22.4637C16.4842 23.1365 17.2342 24.1251 17.5727 23.984C17.9113 23.8429 17.5587 22.1965 17.9113 22.0694C18.2638 21.9423 20.1192 21.6732 21.363 21.6966C22.4515 21.7171 24.4341 22.2525 24.0114 21.4639C23.5887 20.6753 20.887 17.3283 20.6167 16.9171L20.6158 16.9181Z" fill="black"/>
<path d="M37.7648 11.0439V11.3149L37.7929 11.3364C38.022 11.5083 38.1698 11.6962 38.2315 11.8961C38.3222 12.1802 38.369 12.5175 38.369 12.8997C38.369 13.7275 38.1324 14.632 37.6648 15.587L37.3244 16.2822L35.8898 13.2659C35.6037 12.6614 35.4587 12.2325 35.4587 11.9905C35.4587 11.6513 35.686 11.4411 36.1545 11.3486L36.2115 11.3373V11.0439H30.5378V11.3327L30.5893 11.3476C31.0008 11.4654 31.3047 11.6177 31.4936 11.8017C31.7293 12.0316 31.9995 12.4586 32.2988 13.0716L35.8197 20.1917L38.5457 14.5666C39.2003 13.2202 39.8157 12.2792 40.374 11.77C40.5489 11.6111 40.792 11.4682 41.0969 11.3448L41.1408 11.3271V11.0439H37.7658H37.7648Z" fill="black"/>
<path d="M43.5768 10.4271C44.0902 10.4271 44.5325 10.2421 44.8916 9.8777C45.2573 9.51889 45.4424 9.08159 45.4424 8.57982C45.4424 8.05095 45.2573 7.59964 44.8925 7.24083C44.5334 6.87642 44.0874 6.69141 43.5693 6.69141C43.0512 6.69141 42.6248 6.87642 42.2544 7.2399C41.8888 7.59403 41.7036 8.036 41.7036 8.55459C41.7036 9.07318 41.8888 9.51235 42.2535 9.87677C42.6126 10.2412 43.0587 10.4262 43.5777 10.4262L43.5768 10.4271Z" fill="black"/>
<path d="M46.517 19.3417C46.2074 19.3258 45.9755 19.2856 45.8305 19.224C45.593 19.1174 45.4546 18.9221 45.4078 18.6231C45.3648 18.3746 45.3424 17.9672 45.3424 17.4122V10.791L45.247 10.8265C43.9714 11.3021 42.4742 11.7413 40.7984 12.1291L40.7385 12.1431L40.7666 12.4393L40.8274 12.4421C41.1659 12.458 41.4268 12.5234 41.6026 12.6374C41.8458 12.7981 42.0141 13.0373 42.1029 13.3485C42.1731 13.6166 42.2086 14.0502 42.2086 14.6361V17.4122C42.2086 17.7887 42.203 18.0737 42.1927 18.2578C42.1665 18.6016 42.1011 18.8511 41.9991 18.9988C41.8532 19.1997 41.5287 19.3155 41.035 19.3417L40.9686 19.3454V19.6482H46.5843V19.3454L46.517 19.3417Z" fill="black"/>
<path d="M52.4154 19.341C52.1058 19.3251 51.8739 19.2849 51.728 19.2223C51.4905 19.1214 51.353 18.9261 51.3072 18.6224C51.2642 18.3739 51.2417 17.9665 51.2417 17.4114V6.72754L51.1482 6.75931C49.8727 7.19661 48.3754 7.59933 46.6987 7.95534L46.637 7.96842L46.665 8.26556L46.7258 8.26836C47.0643 8.28425 47.3252 8.34965 47.5011 8.46365C47.7442 8.62437 47.9125 8.86357 48.0014 9.17473C48.0715 9.4429 48.1071 9.87646 48.1071 10.4623V17.4114C48.1071 17.7992 48.1014 18.0842 48.0912 18.2571C48.065 18.6009 47.9995 18.8504 47.8966 18.999C47.7564 19.1999 47.4319 19.3148 46.9334 19.341L46.867 19.3447V19.6475H52.4827V19.3447L52.4154 19.341Z" fill="black"/>
<path d="M58.3141 19.3416C58.0045 19.3257 57.7726 19.2855 57.6267 19.2229C57.3892 19.122 57.2517 18.9267 57.2059 18.623C57.1629 18.3745 57.1404 17.9671 57.1404 17.4121V5.81152C57.1404 5.81152 57.1591 5.84236 56.8982 5.97785C55.5749 6.66369 54.1862 7.08511 52.5974 7.32712L52.5356 7.3402L52.5637 7.63734L52.6245 7.64014C52.963 7.65602 53.2239 7.72143 53.3997 7.83543C53.6429 7.99615 53.8112 8.23535 53.9001 8.54651C53.9702 8.81468 54.0057 9.24824 54.0057 9.8341V17.413C54.0057 17.8008 54.0001 18.0858 53.9898 18.2586C53.9637 18.6025 53.8982 18.852 53.7953 19.0005C53.655 19.2014 53.3305 19.3164 52.8321 19.3425L52.7657 19.3463V19.649H58.3814V19.3463L58.3141 19.3425V19.3416Z" fill="black"/>
<path d="M68.9929 18.2607C68.7348 18.4083 68.5188 18.4831 68.3495 18.4831C68.0633 18.4831 67.8791 18.3803 67.7856 18.1691C67.7127 18.0084 67.6762 17.6571 67.6762 17.1235V13.2318C67.6762 12.7693 67.6276 12.3815 67.5322 12.0797C67.4461 11.7919 67.2656 11.5312 66.9963 11.3023C66.6045 10.9789 66.0724 10.8154 65.4131 10.8154C64.5826 10.8154 63.6634 10.9668 62.6805 11.2649C61.8575 11.5078 61.1562 11.7965 60.5979 12.1227C59.6141 12.6898 59.1156 13.3364 59.1156 14.0428C59.1156 14.4073 59.2306 14.71 59.4579 14.9436C59.6908 15.1828 60.0003 15.3033 60.3772 15.3033C60.9027 15.3033 61.3544 15.0978 61.7191 14.6941C61.9875 14.4035 62.1577 13.9989 62.2251 13.4897C62.2905 12.9599 62.3429 12.6067 62.3812 12.4394C62.4551 12.1198 62.5917 11.8713 62.789 11.6994C63.0115 11.5031 63.2884 11.4032 63.611 11.4032C63.9336 11.4032 64.1637 11.533 64.3283 11.7994C64.4695 12.0292 64.5415 12.659 64.5415 13.6709V14.5026C62.1849 15.1903 60.6156 15.8406 59.8787 16.434C59.356 16.8535 59.0913 17.3646 59.0913 17.9514C59.0913 18.4373 59.2709 18.855 59.6253 19.1923C60.0947 19.6436 60.7512 19.8735 61.5761 19.8735C62.4009 19.8735 63.0611 19.6782 63.6503 19.2913C63.9607 19.083 64.274 18.7718 64.5845 18.3663C64.6715 18.7354 64.7893 19.0241 64.9352 19.225C65.2569 19.6604 65.7235 19.8819 66.3239 19.8819C66.9243 19.8819 67.5359 19.6726 68.1728 19.2596C68.4608 19.0774 68.7993 18.8251 69.1809 18.5111L69.2351 18.4663L69.0453 18.2336L68.9929 18.2635V18.2607ZM63.4361 15.3547C63.6783 15.1828 64.0496 15.0127 64.5406 14.8492V17.3712C64.5406 17.7645 64.4489 18.0654 64.2694 18.2663C64.0833 18.4728 63.8626 18.5737 63.5942 18.5737C62.9798 18.5737 62.6805 18.0832 62.6805 17.074C62.6805 16.2863 62.9349 15.7089 63.4361 15.3547Z" fill="black"/>
<path d="M77.736 17.3984C77.1749 16.9723 76.4314 16.7564 75.5261 16.7564C75.2334 16.7564 74.8538 16.7704 74.3974 16.7975C73.9046 16.8246 73.5221 16.8386 73.2602 16.8386C72.4766 16.8386 71.9566 16.7695 71.7153 16.6331C71.461 16.4911 71.3375 16.2836 71.3375 16.0005C71.3375 15.7931 71.4413 15.6052 71.6545 15.4268C73.0002 15.8426 74.3478 15.8379 75.5074 15.4483C76.2397 15.2025 76.7877 14.8559 77.1365 14.4176C77.4545 14.0214 77.6153 13.6056 77.6153 13.1833C77.6153 12.4133 77.1094 11.7808 76.1116 11.3014C75.4654 10.9893 74.7621 10.8286 74.0215 10.823H73.9345V10.7361C73.9345 10.0643 74.0897 9.50363 74.4217 9.50363C74.5134 9.50363 74.7724 9.56436 75.0492 9.96428C75.3307 10.3707 75.7366 10.6819 76.0966 10.6819C76.4566 10.6819 76.7821 10.5371 77.0271 10.253C77.2469 9.99886 77.3581 9.67742 77.3581 9.29806C77.3581 8.88225 77.2001 8.52812 76.8887 8.24593C76.5848 7.97028 76.2069 7.83105 75.7665 7.83105C75.0053 7.83105 74.4142 8.16463 74.0112 8.82339C73.7409 9.26816 73.6044 9.8587 73.6044 10.5791C73.6044 10.6342 73.6062 10.7174 73.61 10.8267C72.2437 10.9127 71.1898 11.2874 70.4762 11.9405C70.0002 12.3769 69.7589 12.8581 69.7589 13.373C69.7589 13.9364 69.9871 14.4242 70.436 14.8222C70.6352 15.0016 70.9186 15.1586 71.2777 15.2894C70.0451 15.9865 69.4204 16.7816 69.4204 17.6544C69.4204 18.1655 69.6579 18.6019 70.1265 18.9494C70.3705 19.1354 70.695 19.2849 71.0953 19.3942C70.0442 19.8007 69.5121 20.3268 69.5121 20.9593C69.5121 21.2686 69.6187 21.5377 69.8291 21.7601C70.0788 22.0208 70.4005 22.2161 70.7848 22.3404C71.533 22.5786 72.3915 22.6992 73.3369 22.6992C74.3937 22.6992 75.3793 22.5254 76.2659 22.1815C77.1066 21.8479 77.7434 21.3976 78.1577 20.8435C78.5346 20.3324 78.7254 19.8063 78.7254 19.2812C78.7254 18.9242 78.6337 18.571 78.4532 18.2328C78.284 17.9048 78.0427 17.6245 77.7388 17.3993L77.736 17.3984ZM74.5105 14.8979C74.3731 15.2193 74.1206 15.3754 73.74 15.3754C73.3594 15.3754 73.0984 15.2128 72.9441 14.8783C72.7618 14.4933 72.6701 13.9 72.6701 13.1151C72.6701 12.5049 72.7375 12.0302 72.8712 11.7041C73.0199 11.3547 73.2724 11.1855 73.6418 11.1855C74.3525 11.1855 74.7125 11.9405 74.7125 13.429C74.7125 14.0887 74.6452 14.5821 74.5115 14.897L74.5105 14.8979ZM74.2609 22.2507C73.5202 22.2507 72.86 22.1086 72.2989 21.8283C71.6237 21.491 71.2954 21.0229 71.2954 20.3959C71.2954 20.0137 71.4432 19.7241 71.7462 19.511C72.2437 19.5858 72.6879 19.6232 73.0685 19.6232C73.2892 19.6232 73.5997 19.6119 73.9915 19.5895C74.4124 19.5624 74.72 19.5484 74.9052 19.5484C75.485 19.5484 75.9423 19.6474 76.2649 19.8437C76.5876 20.0464 76.7447 20.3296 76.7447 20.7099C76.7447 21.1509 76.5361 21.5022 76.106 21.7835C75.6458 22.0937 75.0249 22.2507 74.2599 22.2507H74.2609Z" fill="black"/>
<path d="M107.712 17.3984C107.151 16.9723 106.407 16.7564 105.502 16.7564C105.21 16.7564 104.83 16.7704 104.373 16.7975C103.881 16.8246 103.498 16.8386 103.236 16.8386C102.453 16.8386 101.933 16.7695 101.691 16.6331C101.437 16.4911 101.314 16.2836 101.314 16.0005C101.314 15.7931 101.417 15.6052 101.631 15.4268C102.976 15.8426 104.324 15.8379 105.484 15.4483C106.216 15.2025 106.764 14.8559 107.113 14.4176C107.431 14.0214 107.591 13.6056 107.591 13.1833C107.591 12.4133 107.085 11.7808 106.088 11.3014C105.441 10.9893 104.738 10.8286 103.998 10.823H103.911V10.7361C103.911 10.0643 104.066 9.50363 104.398 9.50363C104.489 9.50363 104.748 9.56436 105.025 9.96428C105.302 10.3642 105.713 10.6819 106.073 10.6819C106.433 10.6819 106.758 10.5371 107.003 10.253C107.223 9.99886 107.334 9.67742 107.334 9.29806C107.334 8.88225 107.176 8.52812 106.865 8.24593C106.561 7.97028 106.183 7.83105 105.743 7.83105C104.981 7.83105 104.39 8.16463 103.987 8.82339C103.717 9.26816 103.58 9.8587 103.58 10.5791C103.58 10.6342 103.582 10.7174 103.586 10.8267C102.22 10.9127 101.166 11.2874 100.452 11.9405C99.9763 12.3769 99.735 12.8581 99.735 13.373C99.735 13.9364 99.9632 14.4242 100.412 14.8222C100.611 15.0016 100.895 15.1586 101.254 15.2894C100.021 15.9865 99.3965 16.7816 99.3965 17.6544C99.3965 18.1655 99.634 18.6019 100.103 18.9494C100.347 19.1354 100.671 19.2849 101.071 19.3942C100.02 19.8007 99.4881 20.3268 99.4881 20.9593C99.4881 21.2686 99.5947 21.5377 99.8052 21.7601C100.055 22.0208 100.377 22.2161 100.761 22.3404C101.509 22.5786 102.368 22.6992 103.313 22.6992C104.37 22.6992 105.355 22.5254 106.242 22.1815C107.083 21.8479 107.72 21.3976 108.134 20.8435C108.511 20.3324 108.701 19.8063 108.701 19.2812C108.701 18.9242 108.61 18.571 108.429 18.2328C108.26 17.9048 108.019 17.6245 107.715 17.3993L107.712 17.3984ZM104.487 14.8979C104.349 15.2193 104.097 15.3754 103.716 15.3754C103.335 15.3754 103.075 15.2128 102.92 14.8783C102.738 14.4933 102.646 13.9 102.646 13.1151C102.646 12.5049 102.714 12.0302 102.847 11.7041C102.996 11.3547 103.248 11.1855 103.618 11.1855C104.329 11.1855 104.689 11.9405 104.689 13.429C104.689 14.0887 104.621 14.5821 104.488 14.897L104.487 14.8979ZM104.237 22.2507C103.496 22.2507 102.836 22.1086 102.275 21.8283C101.6 21.491 101.272 21.0229 101.272 20.3959C101.272 20.0137 101.419 19.7241 101.722 19.511C102.22 19.5858 102.664 19.6232 103.045 19.6232C103.265 19.6232 103.576 19.6119 103.968 19.5895C104.388 19.5624 104.696 19.5484 104.881 19.5484C105.461 19.5484 105.918 19.6474 106.241 19.8437C106.564 20.0464 106.721 20.3296 106.721 20.7099C106.721 21.1509 106.512 21.5022 106.082 21.7835C105.622 22.0937 105.001 22.2507 104.236 22.2507H104.237Z" fill="black"/>
<path d="M87.4711 15.7277C87.2363 16.1753 86.9792 16.5229 86.7089 16.7611C86.2591 17.147 85.6849 17.3797 85.0003 17.4516C83.1917 17.6413 82.1911 16.7518 81.9423 14.7325L87.5356 14.1448L87.5169 14.0673C87.4065 13.5982 87.2719 13.2151 87.1176 12.9282C86.7257 12.1947 86.1394 11.6303 85.3744 11.25C84.6291 10.8856 83.808 10.7473 82.9317 10.8389C81.7684 10.9613 80.7771 11.4481 79.986 12.2872C79.0274 13.2954 78.6159 14.5195 78.7637 15.9258C78.8899 17.1227 79.4052 18.1057 80.2974 18.8467C81.2615 19.6475 82.4193 19.9829 83.7379 19.8446C85.1023 19.7017 86.1525 19.0822 86.8585 18.0039C87.2195 17.4582 87.5244 16.7294 87.7647 15.837L87.7815 15.7735L87.4982 15.6744L87.4701 15.7286L87.4711 15.7277ZM81.9059 14.3943C81.8479 13.8112 81.8423 13.2842 81.889 12.8282C81.99 11.8182 82.3435 11.2753 82.9383 11.2127C83.4526 11.1585 83.8127 11.4827 84.0371 12.2031C84.1503 12.5741 84.2578 13.2244 84.356 14.1373L81.9059 14.3943Z" fill="black"/>
<path d="M98.8397 18.2308L98.7873 18.2607C98.5292 18.4083 98.3132 18.4831 98.1439 18.4831C97.8578 18.4831 97.6735 18.3803 97.58 18.1691C97.5071 18.0084 97.4706 17.6571 97.4706 17.1235V13.2318C97.4706 12.7693 97.422 12.3815 97.3266 12.0797C97.2406 11.7919 97.0601 11.5312 96.7908 11.3023C96.3989 10.9789 95.8668 10.8154 95.2075 10.8154C94.3771 10.8154 93.4578 10.9668 92.4749 11.2649C91.652 11.5078 90.9506 11.7965 90.3923 12.1227C89.4085 12.6898 88.9101 13.3364 88.9101 14.0428C88.9101 14.4073 89.0251 14.71 89.2523 14.9436C89.4852 15.1828 89.7947 15.3033 90.1716 15.3033C90.6972 15.3033 91.1489 15.0978 91.5136 14.6941C91.782 14.4035 91.9522 13.9989 92.0195 13.4897C92.085 12.9599 92.1373 12.6067 92.1757 12.4394C92.2496 12.1198 92.3861 11.8713 92.5834 11.6994C92.806 11.5031 93.0828 11.4032 93.4054 11.4032C93.7281 11.4032 93.9581 11.533 94.1227 11.7994C94.2639 12.0292 94.3359 12.659 94.3359 13.6709V14.5026C91.9793 15.1903 90.4101 15.8406 89.6732 16.434C89.1504 16.8535 88.8857 17.3646 88.8857 17.9514C88.8857 18.4373 89.0653 18.855 89.4197 19.1923C89.8892 19.6436 90.5457 19.8735 91.3705 19.8735C92.1953 19.8735 92.8555 19.6782 93.4447 19.2913C93.7552 19.083 94.0685 18.7718 94.3789 18.3663C94.4659 18.7354 94.5837 19.0241 94.7296 19.225C95.0513 19.6604 95.518 19.8819 96.1184 19.8819C96.7187 19.8819 97.3303 19.6726 97.9672 19.2596C98.2552 19.0774 98.5938 18.8251 98.9753 18.5111L99.0295 18.4663L98.8397 18.2336V18.2308ZM93.2315 15.3547C93.4737 15.1828 93.845 15.0127 94.3359 14.8492V17.3712C94.3359 17.7645 94.2443 18.0654 94.0647 18.2663C93.8786 18.4728 93.6579 18.5737 93.3895 18.5737C92.7751 18.5737 92.4759 18.0832 92.4759 17.074C92.4759 16.2863 92.7302 15.7089 93.2315 15.3547Z" fill="black"/>
<path d="M117.08 9.97484C116.765 9.67676 116.379 9.52539 115.932 9.52539C115.25 9.52539 114.647 9.86551 114.139 10.5364C113.886 10.87 113.662 11.2886 113.473 11.7848V10.2271L113.378 10.2608C112.403 10.6112 111.929 10.8532 111.524 10.9784C110.988 11.1428 110.229 11.3391 109.271 11.5642L109.211 11.5783L109.239 11.8735L109.3 11.8763C109.638 11.8922 109.899 11.9576 110.075 12.0716C110.318 12.2323 110.487 12.4715 110.575 12.7827C110.645 13.0509 110.681 13.4844 110.681 14.0703V17.4108C110.681 17.792 110.673 18.077 110.657 18.2564C110.631 18.5993 110.56 18.8479 110.447 18.9964C110.296 19.1983 109.94 19.3141 109.392 19.3403L109.325 19.3431V19.6459H114.945V19.3431L114.878 19.3403C114.54 19.3244 114.286 19.2842 114.123 19.2207C113.864 19.1188 113.711 18.9226 113.654 18.6208C113.611 18.3779 113.588 17.9705 113.588 17.4098V15.2944C113.588 14.6169 113.608 13.3013 113.646 12.9303C113.673 12.6715 113.756 11.9081 113.893 11.6698C114.019 11.454 114.169 11.3493 114.353 11.3493C114.506 11.3493 114.662 11.454 114.818 11.6605C115.06 11.981 115.223 12.1772 115.319 12.2594C115.562 12.4566 115.847 12.5556 116.165 12.5556C116.588 12.5556 116.937 12.3912 117.204 12.067C117.428 11.7913 117.542 11.4559 117.542 11.0718C117.542 10.6411 117.388 10.271 117.082 9.9711L117.08 9.97484Z" fill="black"/>
<path d="M174.344 9.97484C174.028 9.67676 173.642 9.52539 173.195 9.52539C172.513 9.52539 171.91 9.86551 171.402 10.5364C171.149 10.87 170.926 11.2886 170.736 11.7848V10.2271L170.641 10.2608C169.666 10.6112 169.192 10.8532 168.787 10.9784C168.251 11.1428 167.493 11.3391 166.534 11.5642L166.474 11.5783L166.502 11.8735L166.563 11.8763C166.901 11.8922 167.162 11.9576 167.338 12.0716C167.581 12.2323 167.75 12.4715 167.839 12.7827C167.909 13.0509 167.944 13.4844 167.944 14.0703V17.4108C167.944 17.792 167.936 18.077 167.92 18.2564C167.894 18.5993 167.824 18.8479 167.71 18.9964C167.559 19.1983 167.204 19.3141 166.656 19.3403L166.588 19.3431V19.6459H172.209V19.3431L172.141 19.3403C171.803 19.3244 171.549 19.2842 171.387 19.2207C171.128 19.1188 170.974 18.9226 170.917 18.6208C170.874 18.3779 170.852 17.9705 170.852 17.4098V15.2944C170.852 14.6169 170.871 13.3013 170.91 12.9303C170.936 12.6715 171.019 11.9081 171.157 11.6698C171.282 11.454 171.432 11.3493 171.617 11.3493C171.769 11.3493 171.925 11.454 172.081 11.6605C172.324 11.981 172.486 12.1772 172.582 12.2594C172.825 12.4566 173.11 12.5556 173.428 12.5556C173.851 12.5556 174.201 12.3912 174.467 12.067C174.691 11.7913 174.806 11.4559 174.806 11.0718C174.806 10.6411 174.651 10.271 174.345 9.9711L174.344 9.97484Z" fill="black"/>
<path d="M119.859 11.0316C120.372 11.0316 120.815 10.8466 121.174 10.4822C121.539 10.1234 121.725 9.68609 121.725 9.18432C121.725 8.65545 121.539 8.20413 121.175 7.84532C120.816 7.48091 120.37 7.2959 119.852 7.2959C119.333 7.2959 118.907 7.48091 118.537 7.84439C118.171 8.19853 117.986 8.6405 117.986 9.15909C117.986 9.67768 118.171 10.1168 118.536 10.4813C118.895 10.8457 119.341 11.0307 119.86 11.0307L119.859 11.0316Z" fill="black"/>
<path d="M122.798 19.3421C122.488 19.3262 122.256 19.286 122.112 19.2244C121.874 19.1178 121.736 18.9226 121.689 18.6236C121.646 18.375 121.623 18.7992 121.623 18.2442V11.623L121.528 11.6586C120.252 12.1342 118.755 12.5733 117.079 12.9611L117.02 12.9751L117.048 13.2713L117.108 13.2741C117.447 13.29 117.708 13.3554 117.884 13.4694C118.127 13.6301 118.295 13.8693 118.384 14.1805C118.454 14.4487 118.49 14.8822 118.49 15.4681V18.2442C118.49 18.6207 118.484 18.0751 118.474 18.2591C118.448 18.603 118.382 18.8525 118.28 19.0001C118.134 19.201 117.81 19.3169 117.316 19.343L117.25 19.3468V19.6495H122.865V19.3468L122.798 19.343V19.3421Z" fill="black"/>
<path d="M131.702 16.4295C130.98 17.1771 130.143 17.5564 129.214 17.5564C128.336 17.5564 127.631 17.2425 127.118 16.6239C126.64 16.039 126.398 15.2503 126.398 14.2804C126.398 13.4376 126.578 12.6845 126.935 12.0425C127.256 11.466 127.654 11.1866 128.155 11.1866C128.441 11.1866 128.674 11.2801 128.865 11.4707C129.035 11.6464 129.118 11.8594 129.118 12.1238C129.118 12.2976 129.073 12.5387 128.981 12.8387C128.869 13.2068 128.813 13.5002 128.813 13.7104C128.813 14.1169 128.932 14.4654 129.168 14.7467C129.451 15.0868 129.834 15.2597 130.306 15.2597C130.778 15.2597 131.131 15.0868 131.403 14.7458C131.644 14.4477 131.766 14.0907 131.766 13.6852C131.766 12.9564 131.44 12.2995 130.799 11.7314C130.111 11.1278 129.216 10.8213 128.139 10.8213C127.388 10.8213 126.677 10.9736 126.026 11.2735C125.229 11.6351 124.582 12.1864 124.102 12.9097C123.584 13.689 123.321 14.5561 123.321 15.4858C123.321 16.0651 123.434 16.6463 123.657 17.2135C123.891 17.8096 124.217 18.3133 124.625 18.7095C125.424 19.4794 126.455 19.87 127.692 19.87C129.605 19.87 131.06 18.7739 132.016 16.6136L132.042 16.5538L131.739 16.3903L131.701 16.4286L131.702 16.4295Z" fill="black"/>
<path d="M142.751 18.3511C142.201 18.2876 141.861 18.0596 141.708 17.6513C141.63 17.4569 141.589 17.0682 141.589 16.4964V10.8105L141.507 10.8246C139.935 11.0871 138.593 11.245 137.339 11.2946L137.271 11.2974V11.5964L137.336 11.601C137.65 11.6225 137.882 11.6721 138.028 11.7506C138.26 11.872 138.418 12.1411 138.496 12.5523C138.528 12.7233 138.545 13.0531 138.545 13.5306V17.9138C138.148 18.3035 137.764 18.5006 137.399 18.5006C137.034 18.5006 136.783 18.3717 136.624 18.1045C136.51 17.9185 136.453 17.5522 136.453 17.0177V10.8115L136.37 10.8255C134.798 11.0881 133.453 11.246 132.194 11.2955L132.125 11.2983V11.5973L132.191 11.602C132.709 11.6384 133.043 11.7879 133.185 12.0449C133.338 12.3196 133.416 12.8195 133.416 13.5306V17.3149C133.416 17.8129 133.444 18.1988 133.5 18.4633C133.603 18.9034 133.836 19.2463 134.191 19.4808C134.582 19.7406 135.021 19.8723 135.496 19.8723C136.223 19.8723 136.852 19.6434 137.545 19.1912C137.779 19.0332 138.114 18.7585 138.543 18.3745V19.8976L139.148 19.7126C140.425 19.2958 141.084 19.0575 141.287 19.0024C141.714 18.8819 142.208 18.766 142.754 18.6567L142.811 18.6455V18.3595L142.748 18.3521L142.751 18.3511Z" fill="black"/>
<path d="M166.253 18.3511C165.703 18.2876 165.363 18.0596 165.21 17.6513C165.132 17.4569 165.091 17.0682 165.091 16.4964V10.8105L165.009 10.8246C163.437 11.0871 162.095 11.245 160.841 11.2946L160.773 11.2974V11.5964L160.838 11.601C161.151 11.6225 161.384 11.6721 161.53 11.7506C161.762 11.872 161.92 12.1411 161.998 12.5523C162.03 12.7233 162.046 13.0531 162.046 13.5306V17.9138C161.65 18.3035 161.266 18.5006 160.901 18.5006C160.536 18.5006 160.285 18.3717 160.126 18.1045C160.012 17.9185 159.954 17.5522 159.954 17.0177V10.8115L159.872 10.8255C158.3 11.0881 156.955 11.246 155.696 11.2955L155.627 11.2983V11.5973L155.693 11.602C156.211 11.6384 156.545 11.7879 156.687 12.0449C156.84 12.3196 156.918 12.8195 156.918 13.5306V17.3149C156.918 17.8129 156.946 18.1988 157.002 18.4633C157.105 18.9034 157.338 19.2463 157.693 19.4808C158.084 19.7406 158.523 19.8723 158.998 19.8723C159.725 19.8723 160.354 19.6434 161.047 19.1912C161.281 19.0332 161.616 18.7585 162.045 18.3745V19.8976L162.65 19.7126C163.927 19.2958 164.586 19.0575 164.789 19.0024C165.216 18.8819 165.71 18.766 166.256 18.6567L166.313 18.6455V18.3595L166.25 18.3521L166.253 18.3511Z" fill="black"/>
<path d="M147.855 19.2233C147.618 19.1224 147.48 18.9271 147.434 18.6234C147.391 18.3748 147.369 17.9674 147.369 17.4124V6.72852L147.275 6.76029C146 7.19758 144.503 7.60031 142.826 7.95631L142.764 7.9694L142.792 8.26653L142.853 8.26934C143.192 8.28522 143.452 8.35063 143.628 8.46463C143.871 8.62534 144.04 8.86455 144.129 9.1757C144.199 9.44387 144.234 9.87743 144.234 10.4633V17.4124C144.234 17.8002 144.229 18.0852 144.218 18.258C144.192 18.6019 144.127 18.8514 144.024 19C143.884 19.2009 143.559 19.3158 143.061 19.3419L142.993 19.3457V19.6484H148.609V19.3457L148.542 19.3419C148.232 19.3261 148 19.2859 147.854 19.2233H147.855Z" fill="black"/>
<path d="M155.448 18.328C155.083 18.4514 154.765 18.514 154.503 18.514C154.011 18.514 153.651 18.3654 153.434 18.0711C153.252 17.8309 153.159 17.4011 153.159 16.7919V11.9872H154.843L155.34 11.0528H153.159V7.46191L153.031 7.64506C151.732 9.4989 150.034 10.9145 147.982 11.8526L147.688 11.9872H150.024V16.9741C150.024 17.5403 150.079 18.0159 150.184 18.3906C150.287 18.7382 150.495 19.0475 150.803 19.3091C151.254 19.682 151.835 19.8707 152.526 19.8707C153.164 19.8707 153.843 19.6736 154.546 19.283C154.856 19.1064 155.208 18.8737 155.594 18.5925L155.646 18.5551L155.502 18.3103L155.448 18.329L155.448 18.328Z" fill="black"/>
<path d="M182.716 15.6715L182.688 15.7257C182.454 16.1733 182.196 16.5209 181.926 16.7592C181.476 17.1451 180.902 17.3777 180.218 17.4497C178.409 17.6394 177.408 16.7498 177.16 14.7306L182.753 14.1429L182.734 14.0653C182.624 13.5962 182.489 13.2131 182.335 12.9263C181.943 12.1928 181.357 11.6284 180.592 11.2481C179.846 10.8837 179.024 10.7454 178.149 10.837C176.986 10.9594 175.994 11.4462 175.203 12.2853C174.245 13.2935 173.833 14.5176 173.981 15.9238C174.107 17.1208 174.622 18.1038 175.515 18.8447C176.479 19.6455 177.637 19.981 178.955 19.8427C180.32 19.6997 181.37 19.0802 182.076 18.0019C182.437 17.4562 182.742 16.7274 182.982 15.8351L182.999 15.7715L182.715 15.6725L182.716 15.6715ZM177.123 14.3923C177.065 13.8093 177.06 13.2823 177.106 12.8263C177.207 11.8162 177.561 11.2733 178.156 11.2107C178.67 11.1565 179.03 11.4808 179.254 12.2012C179.368 12.5721 179.475 13.2225 179.573 14.1354L177.123 14.3923Z" fill="black"/>
<path d="M46.8998 19.3447H46.5728V19.6484H46.8998V19.3447Z" fill="black"/>
<path d="M52.7758 19.3447H52.4487V19.6484H52.7758V19.3447Z" fill="black"/>
<path d="M117.633 19.3447H116.673V19.6484H117.633V19.3447Z" fill="black"/>
</g>
<defs>
<clipPath id="clip0_1309_15739">
<rect width="183" height="24" fill="white"/>
</clipPath>
</defs>
</svg>
