<svg width="39" height="37" viewBox="0 0 39 37" fill="none" xmlns="http://www.w3.org/2000/svg">
<path id="Vector" d="M31.0008 25.9043C30.6942 25.4388 32.9498 24.1043 33.5222 23.6908C33.7894 23.4982 33.3295 23.4897 33.3717 22.9596C33.4139 22.4294 34.7498 21.5407 34.9622 21.4338C35.1745 21.3283 34.74 21.2636 34.6978 20.036C34.6556 18.8069 38.2036 14.0833 38.0981 14.02C37.9926 13.9568 33.7022 16.2025 32.8556 16.2236C32.4422 16.2335 32.2059 16.0535 32.0428 15.8721C31.8698 15.6822 31.7784 15.491 31.649 15.5233C31.3945 15.5866 30.7097 16.4768 29.7112 16.4768C29.108 16.4768 29.3203 15.82 29.1304 15.9255C28.9392 16.031 26.4276 18.6368 25.072 17.1757C23.7164 15.7146 27.6567 12.5154 27.4022 12.3663C27.1476 12.2186 25.8342 12.3199 25.7076 12.0907C25.5811 11.8614 26.0044 10.3118 25.6654 10.1416C25.5333 10.0755 25.2844 10.091 25.0045 10.1064C24.5658 10.1304 24.0539 10.1557 23.8022 9.86598C23.3789 9.37941 23.8022 7.29254 23.5476 7.00566C23.2931 6.71879 21.645 7.15191 20.6873 6.08457C19.8506 5.15223 19.5117 0.777383 19.0533 0.438477C18.5948 0.777383 18.2559 5.15223 17.4192 6.08457C16.4615 7.15191 14.8134 6.71879 14.5589 7.00566C14.3044 7.29254 14.729 9.37801 14.3044 9.86598C14.0526 10.1557 13.5394 10.1318 13.1006 10.1064C12.8208 10.091 12.5719 10.0755 12.4397 10.1416C12.1008 10.3104 12.524 11.8614 12.3975 12.0907C12.2709 12.3185 10.9575 12.2172 10.703 12.3663C10.4484 12.5139 14.3887 15.7132 13.0331 17.1757C11.6775 18.6382 9.16592 16.0324 8.97467 15.9255C8.78342 15.82 8.99717 16.4768 8.39389 16.4768C7.39545 16.4768 6.7092 15.5866 6.45608 15.5233C6.32529 15.491 6.23389 15.6808 6.06233 15.8721C5.8992 16.0521 5.66154 16.2335 5.24951 16.2236C4.39733 16.2011 0.108263 13.9554 0.00279408 14.0186C-0.102675 14.0819 3.44529 18.8069 3.40311 20.0346C3.36092 21.2636 2.92639 21.3269 3.13873 21.4324C3.35108 21.5379 4.68701 22.428 4.7292 22.9582C4.77139 23.4883 4.31295 23.4968 4.57873 23.6894C5.15108 24.1029 7.4067 25.4374 7.10014 25.9029C6.69233 26.5202 2.62967 31.5588 1.99404 32.7457C1.35842 33.9325 4.33967 33.1254 5.97654 33.0958C7.84686 33.0607 10.6369 33.4671 11.167 33.6569C11.6972 33.8482 11.167 36.326 11.6747 36.5383C12.1837 36.7507 13.3144 35.1124 14.6194 34.2504C15.878 33.4193 17.0198 32.9847 19.1405 32.9918C21.1823 32.9988 22.3678 33.3883 23.4801 34.2504C24.788 35.2628 25.9158 36.7507 26.4248 36.5383C26.9339 36.326 26.4037 33.8482 26.9339 33.6569C27.464 33.4657 30.254 33.0607 32.1244 33.0958C33.7612 33.1268 36.7425 33.9325 36.1069 32.7457C35.4712 31.5588 31.4086 26.5216 31.0022 25.9029L31.0008 25.9043Z" fill="black"/>
</svg>
